<svg xmlns="http://www.w3.org/2000/svg" xml:space="preserve" style="fill-rule:evenodd;clip-rule:evenodd;stroke-linejoin:round;stroke-miterlimit:2" viewBox="0 0 3077 793">
  <g transform="translate(-78.739 -103.82)">
    <circle cx="474.919" cy="500" r="396.18" style="fill:none"/>
    <clipPath id="a">
      <circle cx="474.919" cy="500" r="396.18"/>
    </clipPath>
    <g clip-path="url(#a)">
      <path d="M0 0s142.552 354.714 500 500 500 500 500 500v-87.019s-142.552-354.714-500-500-500-500-500-500V0Z" style="fill:currentColor" transform="translate(-52.972 18.045) scale(1.05578)"/>
      <path d="M0 0s142.552 354.714 500 500 500 500 500 500v-87.019s-142.552-354.714-500-500-500-500-500-500V0Z" style="fill:currentColor" transform="translate(-52.972 166.805) scale(1.05578)"/>
      <path d="M0 0s142.552 354.714 500 500 500 500 500 500v-87.019s-142.552-354.714-500-500-500-500-500-500V0Z" style="fill:currentColor" transform="translate(-52.972 315.565) scale(1.05578)"/>
      <path d="M0 0s142.552 354.714 500 500 500 500 500 500v-87.019s-142.552-354.714-500-500-500-500-500-500V0Z" style="fill:currentColor" transform="translate(-52.972 464.325) scale(1.05578)"/>
      <path d="M0 0s142.552 354.714 500 500 500 500 500 500v-87.019s-142.552-354.714-500-500-500-500-500-500V0Z" style="fill:currentColor" transform="translate(-52.972 -130.715) scale(1.05578)"/>
      <path d="M0 0s142.552 354.714 500 500 500 500 500 500v-87.019s-142.552-354.714-500-500-500-500-500-500V0Z" style="fill:currentColor" transform="translate(-52.972 -279.475) scale(1.05578)"/>
      <path d="M0 0s142.552 354.714 500 500 500 500 500 500v-87.019s-142.552-354.714-500-500-500-500-500-500V0Z" style="fill:currentColor" transform="translate(-52.972 -428.235) scale(1.05578)"/>
    </g>
  </g>
  <path d="M11552.9 534.847h-107.4c-1 0-1.4-.469-1.4-1.407l.2-31.359 70.6-134.859h-66.8c-.8 0-1.2-.375-1.2-1.125v-30.235c0-.937.4-1.406 1.2-1.406h104.2c1 0 1.5.469 1.5 1.406v31.078l-70.2 134.157h69.3c.8 0 1.1.515 1.1 1.546l.3 30.797c0 .938-.5 1.407-1.4 1.407ZM11666.5 534.847h-93.1c-.7 0-1.1-.469-1.1-1.407l.3-197.859c0-.75.4-1.125 1.1-1.125h92.6c.7 0 1.1.469 1.1 1.406v32.203c0 .75-.4 1.125-1.1 1.125h-59.1v45h59.1c.7 0 1.1.375 1.1 1.125l.3 32.625c0 .75-.4 1.125-1.2 1.125h-59.3v50.344h59.3c.8 0 1.2.469 1.2 1.406v32.907c0 .75-.4 1.125-1.2 1.125ZM11746 534.847h-51.6c-.8 0-1.1-.469-1.1-1.407l.5-197.859c0-.75.4-1.125 1.1-1.125h55.4c10.8 0 20.6 2.625 29.4 7.875 8.7 5.25 15.5 12.211 20.4 20.883 5 8.672 7.5 18.07 7.5 28.195 0 8.25-1.9 15.938-5.6 23.063-3.8 7.125-8.2 12.89-13.4 17.296 5.5 5.532 9.8 11.954 12.9 19.266 3.1 7.313 4.7 15 4.7 23.063 0 11.156-2.7 21.328-8 30.515-5.5 9.188-12.7 16.524-21.8 22.008-9.1 5.484-19.3 8.227-30.4 8.227Zm4.3-166.219h-21.9v45.281h21.9c6.7 0 12.1-2.367 16.2-7.101 4.1-4.735 6.2-9.868 6.2-15.399 0-6.094-2.2-11.414-6.6-15.961-4.4-4.547-9.7-6.82-15.8-6.82Zm-4.3 80.156h-17.6l-.3 50.906h17.9c6.9 0 12.9-2.531 17.8-7.593 5-5.063 7.5-11.063 7.5-18 0-6.938-2.5-12.891-7.5-17.86-4.9-4.969-10.9-7.453-17.8-7.453ZM11860.6 534.847h-32.6c-.8 0-1.2-.469-1.2-1.407l.6-197.859c0-.75.4-1.125 1.1-1.125h58.3c10.4 0 19.9 2.531 28.6 7.594 8.8 5.062 15.7 11.859 20.9 20.39 5.2 8.532 7.8 18.188 7.8 28.969 0 7.031-1 13.406-3.2 19.125-2.2 5.719-4.7 10.547-7.5 14.484-2.9 3.938-5.5 6.844-7.8 8.719 10.4 11.531 15.6 25.078 15.6 40.641l.3 59.062c0 .938-.5 1.407-1.4 1.407h-32.7c-.7 0-1.1-.282-1.1-.844v-59.625c0-6.938-2.4-12.938-7.3-18-4.9-5.063-10.9-7.594-18-7.594h-19l-.3 84.656c0 .938-.4 1.407-1.1 1.407Zm26.2-165.938h-24.8v45.281h24.8c5.9 0 11.1-2.203 15.8-6.609 4.6-4.406 6.9-9.797 6.9-16.172 0-6.094-2.2-11.367-6.7-15.82-4.5-4.453-9.9-6.68-16-6.68ZM11950.2 533.44l35.7-197.859c.2-.75.7-1.125 1.4-1.125h41.8c.7 0 1.2.375 1.4 1.125l34.3 197.859c.1.938-.3 1.407-1.1 1.407h-32c-.9 0-1.4-.469-1.5-1.407l-3.1-21.093h-39.2l-3.1 21.093c-.1.938-.6 1.407-1.4 1.407h-32.1c-.7 0-1.1-.469-1.1-1.407Zm59.3-132.75-1.7-10.687-1.2 10.687-13 80.86h27.7l-11.8-80.86Z" style="fill:currentColor;fill-rule:nonzero" transform="translate(-36380.8 -1025.34) scale(3.27048)"/>
</svg>
