<?xml version="1.0" encoding="UTF-8" standalone="no"?>
<!DOCTYPE svg PUBLIC "-//W3C//DTD SVG 1.1//EN" "http://www.w3.org/Graphics/SVG/1.1/DTD/svg11.dtd">
<svg width="100%" height="100%" viewBox="0 0 793 793" version="1.1" xmlns="http://www.w3.org/2000/svg" xmlns:xlink="http://www.w3.org/1999/xlink" xml:space="preserve" xmlns:serif="http://www.serif.com/" style="fill-rule:evenodd;clip-rule:evenodd;stroke-linejoin:round;stroke-miterlimit:2;">
    <path d="M94.473,142.057C120.416,170.034 147.95,196.524 177.115,221.131C219.622,256.994 265.533,288.85 314.309,315.595C333.913,326.344 353.971,336.268 374.418,345.312C379.65,347.626 384.907,349.882 390.189,352.08C394.839,354.016 399.515,355.891 404.16,357.84C412.045,361.147 419.876,364.584 427.648,368.149C455.247,380.808 482.103,395.078 508.073,410.81C558.869,441.581 606.208,477.926 649.584,518.465C678.796,545.766 706.189,574.968 731.812,605.656L732.17,606.086C722.185,622.024 711.097,637.203 699.012,651.52L697.888,650.303C671.945,622.327 644.411,595.836 615.246,571.23C572.739,535.367 526.828,503.511 478.052,476.766C458.448,466.017 438.39,456.093 417.943,447.049C412.711,444.735 407.454,442.479 402.172,440.281C397.521,438.345 392.846,436.47 388.201,434.521C380.316,431.214 372.485,427.776 364.713,424.212C337.114,411.552 310.257,397.283 284.288,381.551C233.492,350.78 186.153,314.435 142.777,273.896C113.565,246.595 86.172,217.393 60.549,186.705L60.191,186.275C70.176,170.337 81.264,155.158 93.349,140.841L94.473,142.057Z" style="fill:white;"/>
    <path d="M49.444,204.707C76.689,238.512 106.037,270.617 137.529,300.514C182.819,343.508 232.507,381.923 286.017,414.157C312.056,429.841 338.98,444.057 366.645,456.655C373.782,459.906 380.969,463.049 388.201,466.082C392.846,468.031 397.521,469.906 402.172,471.841C406.796,473.766 411.402,475.735 415.988,477.749C435.854,486.47 455.355,496.022 474.433,506.355C520.705,531.416 564.438,561.074 605.15,594.4C632.736,616.982 658.907,641.249 683.7,666.862L684.546,667.739C670.863,682.26 656.098,695.75 640.377,708.081L640.238,707.955C619.38,689.033 597.689,671.042 575.132,654.178C539.301,627.389 501.35,603.426 461.624,582.839C445.384,574.423 428.852,566.571 412.064,559.31C408.116,557.603 404.154,555.931 400.179,554.287C396.189,552.636 392.183,551.024 388.201,549.354C381.622,546.594 375.082,543.744 368.581,540.805C341.466,528.546 315.056,514.735 289.49,499.508C230.558,464.41 176.23,421.823 127.237,373.863C90.485,337.886 56.741,298.904 25.991,257.691L25.278,256.732C32.071,238.694 40.142,221.281 49.374,204.62L49.444,204.707Z" style="fill:white;"/>
    <path d="M18.148,278.584C50.268,322.799 85.789,364.552 124.706,402.937C174.359,451.912 229.54,495.365 289.49,531.069C315.056,546.296 341.466,560.107 368.581,572.366C375.082,575.305 381.622,578.155 388.201,580.914C392.183,582.585 396.189,584.197 400.179,585.848C404.154,587.492 408.116,589.164 412.064,590.871C426.941,597.305 441.616,604.203 456.065,611.547C492.623,630.127 527.713,651.562 561.052,675.435C581.188,689.854 600.663,705.173 619.507,721.242L620.892,722.428C601.491,735.824 580.837,747.535 559.147,757.347L557.875,756.442C544.398,746.91 530.666,737.744 516.654,729.017C491.622,713.427 465.742,699.197 439.14,686.47C428.904,681.573 418.561,676.897 408.121,672.45C401.507,669.633 394.831,666.967 388.201,664.186C381.622,661.427 375.082,658.577 368.581,655.638C341.466,643.379 315.056,629.567 289.49,614.341C273.491,604.812 257.822,594.731 242.507,584.137C148.794,519.315 68.885,435.687 4.189,342.133L3.751,341.498C6.752,319.788 11.515,298.637 17.887,278.222L18.148,278.584Z" style="fill:white;"/>
    <path d="M1.065,369.145C66.666,465.09 148.201,550.796 244.125,616.814C258.925,627 274.054,636.708 289.49,645.901C315.056,661.128 341.466,674.939 368.581,687.199C375.082,690.137 381.622,692.987 388.201,695.747C394.17,698.25 400.181,700.652 406.143,703.172C415.959,707.321 425.69,711.672 435.328,716.219C456.569,726.242 477.358,737.22 497.628,749.086C508.051,755.188 518.328,761.536 528.477,768.083L530.083,769.124C494.893,781.777 457.39,789.588 418.395,791.747L417.943,791.546C412.708,789.239 407.454,786.976 402.172,784.778C396.859,782.567 391.519,780.424 386.218,778.183C377.701,774.583 369.248,770.831 360.864,766.93C332.179,753.585 304.309,738.496 277.414,721.837C262.812,712.793 248.497,703.287 234.486,693.352C144.589,629.605 67.682,548.521 4.979,458.108L4.775,457.812C1.633,437.741 -0,417.15 -0,396.18C-0,387.019 0.312,377.929 0.924,368.938L1.065,369.145Z" style="fill:white;"/>
    <path d="M14.763,503.554C76.403,589.408 151.055,666.343 237.681,727.167C258.968,742.113 280.951,756.069 303.563,768.924C314.941,775.393 326.482,781.565 338.158,787.48L339.981,788.397C183.695,766.176 56.645,652.579 14.738,503.519L14.763,503.554Z" style="fill:white;"/>
    <path d="M152.123,84.406C172.981,103.328 194.672,121.319 217.229,138.183C253.06,164.972 291.011,188.935 330.737,209.522C346.977,217.938 363.509,225.79 380.297,233.051C384.245,234.758 388.207,236.43 392.181,238.074C396.172,239.725 400.177,241.337 404.16,243.007C410.738,245.767 417.279,248.617 423.78,251.556C450.895,263.815 477.305,277.626 502.871,292.853C561.803,327.951 616.131,370.538 665.124,418.498C701.876,454.475 735.62,493.457 766.37,534.67L767.083,535.629C760.29,553.667 752.218,571.08 742.987,587.741L742.917,587.653C715.671,553.849 686.324,521.744 654.832,491.847C609.542,448.853 559.854,410.437 506.344,378.204C480.305,362.52 453.381,348.304 425.716,335.706C418.579,332.455 411.392,329.312 404.16,326.279C399.515,324.33 394.839,322.455 390.189,320.519C385.565,318.595 380.959,316.626 376.373,314.612C356.507,305.891 337.005,296.339 317.928,286.006C271.656,260.945 227.923,231.287 187.211,197.961C159.625,175.379 133.454,151.112 108.661,125.499L107.815,124.622C121.498,110.101 136.263,96.611 151.984,84.28L152.123,84.406Z" style="fill:white;"/>
    <path d="M234.486,35.918C247.963,45.451 261.695,54.617 275.707,63.344C300.739,78.934 326.619,93.164 353.221,105.891C363.457,110.788 373.8,115.464 384.24,119.911C390.854,122.728 397.53,125.394 404.16,128.175C410.738,130.934 417.279,133.784 423.78,136.723C450.895,148.982 477.305,162.794 502.871,178.02C518.87,187.549 534.539,197.63 549.853,208.224C643.567,273.046 723.476,356.674 788.172,450.228L788.61,450.863C785.609,472.573 780.845,493.724 774.474,514.138L774.213,513.777C742.093,469.562 706.571,427.809 667.655,389.424C618.002,340.449 562.82,296.996 502.871,261.292C477.305,246.065 450.895,232.254 423.78,219.995C417.279,217.056 410.738,214.206 404.16,211.446C400.177,209.776 396.172,208.164 392.181,206.513C388.207,204.869 384.245,203.197 380.297,201.49C365.42,195.056 350.745,188.157 336.296,180.814C299.738,162.234 264.648,140.799 231.309,116.926C211.173,102.506 191.698,87.188 172.853,71.119L171.468,69.933C190.87,56.537 211.524,44.825 233.214,35.014L234.486,35.918Z" style="fill:white;"/>
    <path d="M374.418,0.815C379.653,3.122 384.907,5.385 390.189,7.583C395.502,9.794 400.842,11.937 406.143,14.178C414.66,17.778 423.113,21.53 431.497,25.431C460.182,38.776 488.052,53.864 514.947,70.523C529.549,79.568 543.864,89.074 557.875,99.009C647.772,162.756 724.679,243.84 787.382,334.253L787.586,334.549C790.728,354.62 792.361,375.211 792.361,396.18C792.361,405.342 792.049,414.432 791.437,423.423L791.295,423.216C725.694,327.271 644.16,241.565 548.236,175.547C533.436,165.361 518.307,155.653 502.871,146.46C477.305,131.233 450.895,117.421 423.78,105.162C417.279,102.223 410.738,99.374 404.16,96.614C398.191,94.11 392.18,91.709 386.218,89.189C376.402,85.04 366.671,80.689 357.033,76.141C335.792,66.119 315.003,55.141 294.733,43.275C284.309,37.173 274.033,30.825 263.883,24.278L262.278,23.237C297.468,10.583 334.971,2.773 373.966,0.614L374.418,0.815Z" style="fill:white;"/>
    <path d="M452.38,3.963C608.666,26.185 735.716,139.782 777.623,288.842L777.597,288.806C715.958,202.953 641.306,126.018 554.679,65.194C533.393,50.248 511.41,36.292 488.798,23.437C477.42,16.968 465.879,10.796 454.203,4.881L452.38,3.963Z" style="fill:white;"/>
</svg>
